<?xml version="1.0" encoding="utf-8"?>
<!-- Generator: Adobe Illustrator 24.3.0, SVG Export Plug-In . SVG Version: 6.00 Build 0)  -->
<svg version="1.1" id="Layer_1" xmlns="http://www.w3.org/2000/svg" xmlns:xlink="http://www.w3.org/1999/xlink" x="0px" y="0px"
	 viewBox="0 0 828 841.9" style="enable-background:new 0 0 828 841.9;" xml:space="preserve">
<style type="text/css">
	.st0{fill:#231F20;}
	.st1{fill:#FFFFFF;stroke:#FFFFFF;stroke-width:12.6606;stroke-miterlimit:10;}
</style>
<ellipse class="st0" cx="415.9" cy="418.8" rx="375.7" ry="380.1"/>
<g>
	<path class="st1" d="M581,566.2c-20.6,0-38.7-4.6-53.3-10.3c-50.8-20-93.9-68.4-106.4-119.1h-87.5c-3.5,0-6.3-2.8-6.3-6.3
		c0-3.5,2.8-6.3,6.3-6.3h97.7l1,5.1c10,48.5,51,95.7,99.7,114.9c30.8,12.1,78.9,18.6,132.4-19.5c46.5-33.1,69.5-80.3,64.7-133
		c-4.8-53-38.7-102.9-84.3-124.2c-65.5-31.8-123.3-3.9-141.8,7l16.5,17.4c2.4,2.5,2.3,6.5-0.2,8.9c-2.5,2.4-6.5,2.3-8.9-0.2
		L484,272.3l5.8-4.2c3-2.2,74.9-53.8,160.8-12.1c50.2,23.4,86.2,76.2,91.5,134.5c5.2,57.3-19.6,108.7-70,144.5
		C639,558.4,607.9,566.2,581,566.2z"/>
</g>
<ellipse class="st1" cx="271.1" cy="432.3" rx="31" ry="17.1"/>
<g>
	<g>
		<path class="st1" d="M251,242.2c20.6,0,38.7,4.6,53.3,10.3c50.8,20,93.9,68.4,106.4,119.1h127c3.5,0,6.3,2.8,6.3,6.3
			c0,3.5-2.8,6.3-6.3,6.3H400.5l-1-5.1c-10-48.5-51-95.7-99.7-114.9c-30.8-12.1-78.9-18.6-132.4,19.5c-46.5,33.1-69.5,80.3-64.7,133
			c4.8,53,38.7,102.9,84.3,124.2c65.5,31.8,123.3,3.9,141.8-7l-16.5-17.4c-2.4-2.5-2.3-6.5,0.2-8.9c2.5-2.4,6.5-2.3,8.9,0.2
			l26.7,28.2l-5.8,4.2c-3,2.2-74.9,53.8-160.8,12.1c-50.2-23.4-86.2-76.2-91.5-134.5c-5.2-57.3,19.6-108.7,70-144.5
			C192.9,250.1,224,242.2,251,242.2z"/>
	</g>
	<ellipse class="st1" cx="600.3" cy="376.2" rx="31" ry="17.1"/>
</g>
</svg>
